<?xml version="1.0" encoding="UTF-8"?>
<svg id="Layer_1" data-name="Layer 1" xmlns="http://www.w3.org/2000/svg" xmlns:xlink="http://www.w3.org/1999/xlink" viewBox="0 0 598.59 595.28">
  <defs>
    <style>
      .cls-1 {
        fill: #fff;
      }

      .cls-2 {
        fill: url(#tsharuky_w);
        opacity: .05;
      }

      .cls-3 {
        fill: #89a7a1;
      }

      .cls-4 {
        fill: #832c21;
      }

      .cls-5 {
        fill: none;
      }

      .cls-6 {
        mix-blend-mode: overlay;
      }

      .cls-7 {
        fill: url(#tsharuky);
        opacity: .03;
      }
    </style>
    <pattern id="tsharuky_w" data-name="tsharuky w" x="0" y="0" width="65.03" height="73.55" patternTransform="translate(1075.16 -1.66)" patternUnits="userSpaceOnUse" viewBox="0 0 65.03 73.55">
      <g>
        <rect class="cls-5" width="65.03" height="73.55"/>
        <g class="cls-6">
          <g>
            <path class="cls-1" d="M-2.39,12.18c-3.08,0-5.75-2.09-6.49-5.08-.13-.54,.2-1.09,.74-1.22,.54-.13,1.09,.2,1.22,.74,.52,2.09,2.38,3.55,4.54,3.55C.18,10.16,2.28,8.06,2.28,5.49V1.94c0-.56,.45-1.01,1.01-1.01s1.01,.45,1.01,1.01v3.54c0,3.69-3,6.69-6.69,6.69Z"/>
            <path class="cls-1" d="M-1.42,4.38V-1.11c0-.3-.12-.59-.33-.8-.21-.21-.5-.33-.8-.33H-7.05s0-1.49,0-1.49H2.28s0,2.46,0,2.46c0,.56,.45,1.01,1.01,1.01s1.01-.45,1.01-1.01v-3.35c0-.63-.51-1.13-1.14-1.13H-7.93c-.63,0-1.13,.51-1.13,1.14V-1.36c0,.3,.12,.59,.33,.8,.21,.21,.5,.33,.8,.33H-3.43s0,4.6,0,4.6c0,.56,.45,1.01,1.01,1.01s1.01-.45,1.01-1.01ZM-2.55-.23s0,0,0,0h0ZM-7.93-2.24h0Z"/>
          </g>
        </g>
        <g>
          <g class="cls-6">
            <g>
              <path class="cls-1" d="M62.64,12.18c-3.08,0-5.75-2.09-6.49-5.08-.13-.54,.2-1.09,.74-1.22,.54-.13,1.09,.2,1.22,.74,.52,2.09,2.38,3.55,4.54,3.55,2.58,0,4.67-2.1,4.67-4.67V1.94c0-.56,.45-1.01,1.01-1.01s1.01,.45,1.01,1.01v3.54c0,3.69-3,6.69-6.69,6.69Z"/>
              <path class="cls-1" d="M63.62,4.38V-1.11c0-.3-.12-.59-.33-.8-.21-.21-.5-.33-.8-.33h-4.5s0-1.49,0-1.49h9.33s0,2.46,0,2.46c0,.56,.45,1.01,1.01,1.01s1.01-.45,1.01-1.01v-3.35c0-.63-.51-1.13-1.14-1.13h-11.09c-.63,0-1.13,.51-1.13,1.14V-1.36c0,.3,.12,.59,.33,.8,.21,.21,.5,.33,.8,.33h4.5s0,4.6,0,4.6c0,.56,.45,1.01,1.01,1.01s1.01-.45,1.01-1.01ZM62.48-.23s0,0,0,0h0Zm-5.38-2.01h0Z"/>
            </g>
            <ellipse class="cls-1" cx="56.95" cy="4.38" rx="1.01" ry="1"/>
            <ellipse class="cls-1" cx="56.97" cy="1.93" rx="1.01" ry="1"/>
          </g>
          <g class="cls-6">
            <g>
              <path class="cls-1" d="M33.25,18.95c-5.51,0-10.28-3.73-11.6-9.07-.24-.97,.35-1.94,1.32-2.18,.97-.24,1.94,.35,2.18,1.32,.92,3.73,4.25,6.33,8.1,6.33,4.6,0,8.34-3.74,8.34-8.34V.67c0-.99,.81-1.8,1.8-1.8s1.8,.81,1.8,1.8V7c0,6.59-5.36,11.95-11.95,11.95Z"/>
              <path class="cls-1" d="M33.2,6.82c-.99,0-1.8-.81-1.8-1.8V-3.21h-8.04s0,0,0,0c-.54,0-1.05-.21-1.43-.59-.38-.38-.59-.89-.59-1.43v-5.82c0-1.12,.91-2.03,2.02-2.03h19.82c1.12,0,2.03,.91,2.03,2.02V-5.07c0,.99-.81,1.8-1.8,1.8s-1.8-.81-1.8-1.8v-4.4H24.94v2.67h8.04s0,0,0,0c.54,0,1.05,.21,1.43,.59,.38,.38,.59,.89,.59,1.43V5.02c0,.99-.81,1.8-1.8,1.8Zm-.23-10.02s0,0,0,0h0Zm-9.62-3.6h0Z"/>
            </g>
            <ellipse class="cls-1" cx="23.1" cy="5.02" rx="1.8" ry="1.79"/>
            <ellipse class="cls-1" cx="23.13" cy=".65" rx="1.8" ry="1.79"/>
          </g>
        </g>
        <g>
          <g class="cls-6">
            <g>
              <path class="cls-1" d="M30.12,48.95c-3.08,0-5.75-2.09-6.49-5.08-.13-.54,.2-1.09,.74-1.22,.54-.13,1.09,.2,1.22,.74,.52,2.09,2.38,3.55,4.54,3.55,2.58,0,4.67-2.1,4.67-4.67v-3.54c0-.56,.45-1.01,1.01-1.01s1.01,.45,1.01,1.01v3.54c0,3.69-3,6.69-6.69,6.69Z"/>
              <path class="cls-1" d="M31.1,41.15v-5.49c0-.3-.12-.59-.33-.8-.21-.21-.5-.33-.8-.33h-4.5s0-1.49,0-1.49h9.33s0,2.46,0,2.46c0,.56,.45,1.01,1.01,1.01s1.01-.45,1.01-1.01v-3.35c0-.63-.51-1.13-1.14-1.13h-11.09c-.63,0-1.13,.51-1.13,1.14v3.26c0,.3,.12,.59,.33,.8,.21,.21,.5,.33,.8,.33h4.5s0,4.6,0,4.6c0,.56,.45,1.01,1.01,1.01s1.01-.45,1.01-1.01Zm-1.13-4.6s0,0,0,0h0Zm-5.38-2.01h0Z"/>
            </g>
            <ellipse class="cls-1" cx="24.44" cy="41.15" rx="1.01" ry="1"/>
            <ellipse class="cls-1" cx="24.45" cy="38.7" rx="1.01" ry="1"/>
          </g>
          <g class="cls-6">
            <g>
              <path class="cls-1" d="M.74,55.72c-5.51,0-10.28-3.73-11.6-9.07-.24-.97,.35-1.94,1.32-2.18,.97-.24,1.94,.35,2.18,1.32,.92,3.73,4.25,6.33,8.1,6.33,4.6,0,8.34-3.74,8.34-8.34v-6.33c0-.99,.81-1.8,1.8-1.8s1.8,.81,1.8,1.8v6.33c0,6.59-5.36,11.95-11.95,11.95Z"/>
              <path class="cls-1" d="M.69,43.59c-.99,0-1.8-.81-1.8-1.8v-8.22H-9.15s0,0,0,0c-.54,0-1.05-.21-1.43-.59-.38-.38-.59-.89-.59-1.43v-5.82c0-1.12,.91-2.03,2.02-2.03H10.66c1.12,0,2.03,.91,2.03,2.02v5.98c0,.99-.81,1.8-1.8,1.8s-1.8-.81-1.8-1.8v-4.4H-7.58v2.67H.46s0,0,0,0c.54,0,1.05,.21,1.43,.59,.38,.38,.59,.89,.59,1.43v9.8c0,.99-.81,1.8-1.8,1.8Zm-.23-10.02s0,0,0,0h0Zm-9.62-3.6h0Z"/>
            </g>
            <ellipse class="cls-1" cx="-9.41" cy="41.79" rx="1.8" ry="1.79"/>
            <ellipse class="cls-1" cx="-9.38" cy="37.42" rx="1.8" ry="1.79"/>
          </g>
        </g>
        <g class="cls-6">
          <g>
            <path class="cls-1" d="M65.77,55.72c-5.51,0-10.28-3.73-11.6-9.07-.24-.97,.35-1.94,1.32-2.18,.97-.24,1.94,.35,2.18,1.32,.92,3.73,4.25,6.33,8.1,6.33,4.6,0,8.34-3.74,8.34-8.34v-6.33c0-.99,.81-1.8,1.8-1.8s1.8,.81,1.8,1.8v6.33c0,6.59-5.36,11.95-11.95,11.95Z"/>
            <path class="cls-1" d="M65.72,43.59c-.99,0-1.8-.81-1.8-1.8v-8.22h-8.04s0,0,0,0c-.54,0-1.05-.21-1.43-.59-.38-.38-.59-.89-.59-1.43v-5.82c0-1.12,.91-2.03,2.02-2.03h19.82c1.12,0,2.03,.91,2.03,2.02v5.98c0,.99-.81,1.8-1.8,1.8s-1.8-.81-1.8-1.8v-4.4h-16.66v2.67h8.04s0,0,0,0c.54,0,1.05,.21,1.43,.59,.38,.38,.59,.89,.59,1.43v9.8c0,.99-.81,1.8-1.8,1.8Zm-.23-10.02s0,0,0,0h0Zm-9.62-3.6h0Z"/>
          </g>
          <ellipse class="cls-1" cx="55.62" cy="41.79" rx="1.8" ry="1.79"/>
          <ellipse class="cls-1" cx="55.65" cy="37.42" rx="1.8" ry="1.79"/>
        </g>
        <g class="cls-6">
          <path class="cls-1" d="M-1.42,77.92v-5.49c0-.3-.12-.59-.33-.8-.21-.21-.5-.33-.8-.33H-7.05s0-1.49,0-1.49H2.28s0,2.46,0,2.46c0,.56,.45,1.01,1.01,1.01s1.01-.45,1.01-1.01v-3.35c0-.63-.51-1.13-1.14-1.13H-7.93c-.63,0-1.13,.51-1.13,1.14v3.26c0,.3,.12,.59,.33,.8,.21,.21,.5,.33,.8,.33H-3.43s0,4.6,0,4.6c0,.56,.45,1.01,1.01,1.01s1.01-.45,1.01-1.01Zm-1.13-4.6s0,0,0,0h0Zm-5.38-2.01h0Z"/>
        </g>
        <g>
          <g class="cls-6">
            <path class="cls-1" d="M63.62,77.92v-5.49c0-.3-.12-.59-.33-.8-.21-.21-.5-.33-.8-.33h-4.5s0-1.49,0-1.49h9.33s0,2.46,0,2.46c0,.56,.45,1.01,1.01,1.01s1.01-.45,1.01-1.01v-3.35c0-.63-.51-1.13-1.14-1.13h-11.09c-.63,0-1.13,.51-1.13,1.14v3.26c0,.3,.12,.59,.33,.8,.21,.21,.5,.33,.8,.33h4.5s0,4.6,0,4.6c0,.56,.45,1.01,1.01,1.01s1.01-.45,1.01-1.01Zm-1.13-4.6s0,0,0,0h0Zm-5.38-2.01h0Z"/>
          </g>
          <g class="cls-6">
            <g>
              <path class="cls-1" d="M33.25,92.49c-5.51,0-10.28-3.73-11.6-9.07-.24-.97,.35-1.94,1.32-2.18,.97-.24,1.94,.35,2.18,1.32,.92,3.73,4.25,6.33,8.1,6.33,4.6,0,8.34-3.74,8.34-8.34v-6.33c0-.99,.81-1.8,1.8-1.8s1.8,.81,1.8,1.8v6.33c0,6.59-5.36,11.95-11.95,11.95Z"/>
              <path class="cls-1" d="M33.2,80.36c-.99,0-1.8-.81-1.8-1.8v-8.22h-8.04s0,0,0,0c-.54,0-1.05-.21-1.43-.59-.38-.38-.59-.89-.59-1.43v-5.82c0-1.12,.91-2.03,2.02-2.03h19.82c1.12,0,2.03,.91,2.03,2.02v5.98c0,.99-.81,1.8-1.8,1.8s-1.8-.81-1.8-1.8v-4.4H24.94v2.67h8.04s0,0,0,0c.54,0,1.05,.21,1.43,.59,.38,.38,.59,.89,.59,1.43v9.8c0,.99-.81,1.8-1.8,1.8Zm-.23-10.02s0,0,0,0h0Zm-9.62-3.6h0Z"/>
            </g>
            <ellipse class="cls-1" cx="23.13" cy="74.19" rx="1.8" ry="1.79"/>
          </g>
        </g>
      </g>
    </pattern>
    <pattern id="tsharuky" x="0" y="0" width="80.07" height="77.64" patternTransform="translate(1134.37 -79.76)" patternUnits="userSpaceOnUse" viewBox="0 0 80.07 77.64">
      <g>
        <rect class="cls-5" width="80.07" height="77.64"/>
        <g class="cls-6">
          <g>
            <path class="cls-3" d="M-2.39,12.18c-3.08,0-5.75-2.09-6.49-5.08-.13-.54,.2-1.09,.74-1.22,.54-.13,1.09,.2,1.22,.74,.52,2.09,2.38,3.55,4.54,3.55C.18,10.16,2.28,8.06,2.28,5.49V1.94c0-.56,.45-1.01,1.01-1.01s1.01,.45,1.01,1.01v3.54c0,3.69-3,6.69-6.69,6.69Z"/>
            <path class="cls-4" d="M-1.42,4.38V-1.11c0-.3-.12-.59-.33-.8-.21-.21-.5-.33-.8-.33H-7.05s0-1.49,0-1.49H2.28s0,2.46,0,2.46c0,.56,.45,1.01,1.01,1.01s1.01-.45,1.01-1.01v-3.35c0-.63-.51-1.13-1.14-1.13H-7.93c-.63,0-1.13,.51-1.13,1.14V-1.36c0,.3,.12,.59,.33,.8,.21,.21,.5,.33,.8,.33H-3.43s0,4.6,0,4.6c0,.56,.45,1.01,1.01,1.01s1.01-.45,1.01-1.01ZM-2.55-.23s0,0,0,0h0ZM-7.93-2.24h0Z"/>
          </g>
        </g>
        <g>
          <g class="cls-6">
            <g>
              <path class="cls-3" d="M77.67,12.18c-3.08,0-5.75-2.09-6.49-5.08-.13-.54,.2-1.09,.74-1.22,.54-.13,1.09,.2,1.22,.74,.52,2.09,2.38,3.55,4.54,3.55,2.58,0,4.67-2.1,4.67-4.67V1.94c0-.56,.45-1.01,1.01-1.01s1.01,.45,1.01,1.01v3.54c0,3.69-3,6.69-6.69,6.69Z"/>
              <path class="cls-4" d="M78.65,4.38V-1.11c0-.3-.12-.59-.33-.8-.21-.21-.5-.33-.8-.33h-4.5s0-1.49,0-1.49h9.33s0,2.46,0,2.46c0,.56,.45,1.01,1.01,1.01s1.01-.45,1.01-1.01v-3.35c0-.63-.51-1.13-1.14-1.13h-11.09c-.63,0-1.13,.51-1.13,1.14V-1.36c0,.3,.12,.59,.33,.8,.21,.21,.5,.33,.8,.33h4.5s0,4.6,0,4.6c0,.56,.45,1.01,1.01,1.01s1.01-.45,1.01-1.01Zm-1.13-4.6s0,0,0,0h0Zm-5.38-2.01h0Z"/>
            </g>
            <ellipse class="cls-3" cx="71.99" cy="4.38" rx="1.01" ry="1"/>
            <ellipse class="cls-3" cx="72" cy="1.93" rx="1.01" ry="1"/>
          </g>
          <g class="cls-6">
            <g>
              <path class="cls-3" d="M42.13,18.45c-5.68,0-10.6-3.85-11.96-9.36-.25-1,.36-2,1.36-2.25,1-.25,2,.36,2.25,1.36,.95,3.85,4.39,6.53,8.35,6.53,4.75,0,8.61-3.86,8.61-8.61V-.4c0-1.03,.83-1.86,1.86-1.86s1.86,.83,1.86,1.86V6.12c0,6.79-5.53,12.32-12.32,12.32Z"/>
              <path class="cls-4" d="M42.08,5.93c-1.03,0-1.86-.83-1.86-1.86V-4.4h-8.29s0,0,0,0c-.56,0-1.08-.22-1.48-.61-.4-.39-.61-.92-.61-1.48v-6c0-1.15,.94-2.09,2.09-2.09h20.44c1.15,0,2.09,.93,2.09,2.09V-6.33c0,1.03-.83,1.86-1.86,1.86s-1.86-.83-1.86-1.86v-4.54h-17.18v2.76h8.29s0,0,0,0c.56,0,1.08,.22,1.48,.61,.4,.39,.61,.92,.61,1.48V4.08c0,1.03-.83,1.86-1.86,1.86Zm-.23-10.34s0,0,0,0h0Zm-9.92-3.71h0Z"/>
            </g>
            <ellipse class="cls-3" cx="31.66" cy="4.08" rx="1.86" ry="1.85"/>
            <ellipse class="cls-3" cx="31.69" cy="-.43" rx="1.86" ry="1.85"/>
          </g>
        </g>
        <g>
          <g class="cls-6">
            <g>
              <path class="cls-3" d="M37.64,51c-3.08,0-5.75-2.09-6.49-5.08-.13-.54,.2-1.09,.74-1.22,.54-.13,1.09,.2,1.22,.74,.52,2.09,2.38,3.55,4.54,3.55,2.58,0,4.67-2.1,4.67-4.67v-3.54c0-.56,.45-1.01,1.01-1.01s1.01,.45,1.01,1.01v3.54c0,3.69-3,6.69-6.69,6.69Z"/>
              <path class="cls-4" d="M38.62,43.19v-5.49c0-.3-.12-.59-.33-.8-.21-.21-.5-.33-.8-.33h-4.5s0-1.49,0-1.49h9.33s0,2.46,0,2.46c0,.56,.45,1.01,1.01,1.01s1.01-.45,1.01-1.01v-3.35c0-.63-.51-1.13-1.14-1.13h-11.09c-.63,0-1.13,.51-1.13,1.14v3.26c0,.3,.12,.59,.33,.8,.21,.21,.5,.33,.8,.33h4.5s0,4.6,0,4.6c0,.56,.45,1.01,1.01,1.01s1.01-.45,1.01-1.01Zm-1.13-4.6s0,0,0,0h0Zm-5.38-2.01h0Z"/>
            </g>
            <ellipse class="cls-3" cx="31.96" cy="43.19" rx="1.01" ry="1"/>
            <ellipse class="cls-3" cx="31.97" cy="40.75" rx="1.01" ry="1"/>
          </g>
          <g class="cls-6">
            <g>
              <path class="cls-3" d="M2.1,57.26c-5.68,0-10.6-3.85-11.96-9.36-.25-1,.36-2,1.36-2.25,1-.25,2,.36,2.25,1.36,.95,3.85,4.39,6.53,8.35,6.53,4.75,0,8.61-3.86,8.61-8.61v-6.53c0-1.03,.83-1.86,1.86-1.86s1.86,.83,1.86,1.86v6.53c0,6.79-5.53,12.32-12.32,12.32Z"/>
              <path class="cls-4" d="M2.04,44.75c-1.03,0-1.86-.83-1.86-1.86v-8.48H-8.1s0,0,0,0c-.56,0-1.08-.22-1.48-.61-.4-.39-.61-.92-.61-1.48v-6c0-1.15,.94-2.09,2.09-2.09H12.33c1.15,0,2.09,.93,2.09,2.09v6.17c0,1.03-.83,1.86-1.86,1.86s-1.86-.83-1.86-1.86v-4.54H-6.48v2.76H1.81s0,0,0,0c.56,0,1.08,.22,1.48,.61,.4,.39,.61,.92,.61,1.48v10.11c0,1.03-.83,1.86-1.86,1.86Zm-.23-10.34s0,0,0,0h0Zm-9.92-3.71h0Z"/>
            </g>
            <ellipse class="cls-3" cx="-8.37" cy="42.9" rx="1.86" ry="1.85"/>
            <ellipse class="cls-3" cx="-8.34" cy="38.39" rx="1.86" ry="1.85"/>
          </g>
        </g>
        <g class="cls-6">
          <g>
            <path class="cls-3" d="M82.16,57.26c-5.68,0-10.6-3.85-11.96-9.36-.25-1,.36-2,1.36-2.25,1-.25,2,.36,2.25,1.36,.95,3.85,4.39,6.53,8.35,6.53,4.75,0,8.61-3.86,8.61-8.61v-6.53c0-1.03,.83-1.86,1.86-1.86s1.86,.83,1.86,1.86v6.53c0,6.79-5.53,12.32-12.32,12.32Z"/>
            <path class="cls-4" d="M82.11,44.75c-1.03,0-1.86-.83-1.86-1.86v-8.48h-8.29s0,0,0,0c-.56,0-1.08-.22-1.48-.61-.4-.39-.61-.92-.61-1.48v-6c0-1.15,.94-2.09,2.09-2.09h20.44c1.15,0,2.09,.93,2.09,2.09v6.17c0,1.03-.83,1.86-1.86,1.86s-1.86-.83-1.86-1.86v-4.54h-17.18v2.76h8.29s0,0,0,0c.56,0,1.08,.22,1.48,.61,.4,.39,.61,.92,.61,1.48v10.11c0,1.03-.83,1.86-1.86,1.86Zm-.23-10.34s0,0,0,0h0Zm-9.92-3.71h0Z"/>
          </g>
          <ellipse class="cls-3" cx="71.7" cy="42.9" rx="1.86" ry="1.85"/>
          <ellipse class="cls-3" cx="71.72" cy="38.39" rx="1.86" ry="1.85"/>
        </g>
        <g class="cls-6">
          <path class="cls-4" d="M-1.42,82.01v-5.49c0-.3-.12-.59-.33-.8-.21-.21-.5-.33-.8-.33H-7.05s0-1.49,0-1.49H2.28s0,2.46,0,2.46c0,.56,.45,1.01,1.01,1.01s1.01-.45,1.01-1.01v-3.35c0-.63-.51-1.13-1.14-1.13H-7.93c-.63,0-1.13,.51-1.13,1.14v3.26c0,.3,.12,.59,.33,.8,.21,.21,.5,.33,.8,.33H-3.43s0,4.6,0,4.6c0,.56,.45,1.01,1.01,1.01s1.01-.45,1.01-1.01Zm-1.13-4.6s0,0,0,0h0Zm-5.38-2.01h0Z"/>
        </g>
        <g>
          <g class="cls-6">
            <path class="cls-4" d="M78.65,82.01v-5.49c0-.3-.12-.59-.33-.8-.21-.21-.5-.33-.8-.33h-4.5s0-1.49,0-1.49h9.33s0,2.46,0,2.46c0,.56,.45,1.01,1.01,1.01s1.01-.45,1.01-1.01v-3.35c0-.63-.51-1.13-1.14-1.13h-11.09c-.63,0-1.13,.51-1.13,1.14v3.26c0,.3,.12,.59,.33,.8,.21,.21,.5,.33,.8,.33h4.5s0,4.6,0,4.6c0,.56,.45,1.01,1.01,1.01s1.01-.45,1.01-1.01Zm-1.13-4.6s0,0,0,0h0Zm-5.38-2.01h0Z"/>
          </g>
          <g class="cls-6">
            <g>
              <path class="cls-3" d="M42.13,96.08c-5.68,0-10.6-3.85-11.96-9.36-.25-1,.36-2,1.36-2.25,1-.25,2,.36,2.25,1.36,.95,3.85,4.39,6.53,8.35,6.53,4.75,0,8.61-3.86,8.61-8.61v-6.53c0-1.03,.83-1.86,1.86-1.86s1.86,.83,1.86,1.86v6.53c0,6.79-5.53,12.32-12.32,12.32Z"/>
              <path class="cls-4" d="M42.08,83.57c-1.03,0-1.86-.83-1.86-1.86v-8.48h-8.29s0,0,0,0c-.56,0-1.08-.22-1.48-.61-.4-.39-.61-.92-.61-1.48v-6c0-1.15,.94-2.09,2.09-2.09h20.44c1.15,0,2.09,.93,2.09,2.09v6.17c0,1.03-.83,1.86-1.86,1.86s-1.86-.83-1.86-1.86v-4.54h-17.18v2.76h8.29s0,0,0,0c.56,0,1.08,.22,1.48,.61,.4,.39,.61,.92,.61,1.48v10.11c0,1.03-.83,1.86-1.86,1.86Zm-.23-10.34s0,0,0,0h0Zm-9.92-3.71h0Z"/>
            </g>
            <ellipse class="cls-3" cx="31.69" cy="77.21" rx="1.86" ry="1.85"/>
          </g>
        </g>
      </g>
    </pattern>
  </defs>
  <rect class="cls-2" x="90.51" y=".8" width="420.89" height="594.48"/>
  <rect class="cls-7" y="-1.69" width="598.59" height="598.65"/>
</svg>